<?xml version="1.0" encoding="UTF-8" standalone="no"?>
<svg
   width="1000"
   height="1000"
   viewBox="0 0 1000 1000"
   version="1.1"
   id="svg16"
   sodipodi:docname="guides.svg"
   inkscape:version="1.4 (86a8ad7, 2024-10-11)"
   xmlns:inkscape="http://www.inkscape.org/namespaces/inkscape"
   xmlns:sodipodi="http://sodipodi.sourceforge.net/DTD/sodipodi-0.dtd"
   xmlns="http://www.w3.org/2000/svg"
   xmlns:svg="http://www.w3.org/2000/svg">
  <sodipodi:namedview
     id="namedview16"
     pagecolor="#ffffff"
     bordercolor="#000000"
     borderopacity="0.25"
     inkscape:showpageshadow="2"
     inkscape:pageopacity="0.0"
     inkscape:pagecheckerboard="0"
     inkscape:deskcolor="#d1d1d1"
     inkscape:zoom="6.504"
     inkscape:cx="76.030135"
     inkscape:cy="26.368389"
     inkscape:window-width="1920"
     inkscape:window-height="1094"
     inkscape:window-x="-11"
     inkscape:window-y="-11"
     inkscape:window-maximized="1"
     inkscape:current-layer="svg16" />
  <defs
     id="defs1" />
  <path
     d="M 0,0 V 7 L 8.660254,22 12.753293,14.841328 16.339746,22 25,7 V 0 H 20 V 5 H 5 V 0 Z"
     fill="none"
     stroke="#000000"
     stroke-width="1"
     id="path1"
     sodipodi:nodetypes="cccccccccccc" />
  <circle
     cx="16.33974596215561"
     cy="14.5"
     r="0.5"
     fill="none"
     stroke="black"
     stroke-width="1"
     id="circle1" />
  <circle
     cx="8.660254037844389"
     cy="14.5"
     r="0.5"
     fill="none"
     stroke="black"
     stroke-width="1"
     id="circle2" />
  <path
     d="m 0,40 v 7 L 8.660254,62 12.55421,55.148832 16.339746,62 25,47 v -7 h -5 v 5 H 5 v -5 z"
     fill="none"
     stroke="#000000"
     stroke-width="1"
     id="path2"
     sodipodi:nodetypes="cccccccccccc" />
  <circle
     cx="16.33974596215561"
     cy="54.5"
     r="0.5"
     fill="none"
     stroke="black"
     stroke-width="1"
     id="circle3" />
  <circle
     cx="8.660254037844389"
     cy="54.5"
     r="0.5"
     fill="none"
     stroke="black"
     stroke-width="1"
     id="circle4" />
  <path
     d="M 50,0 V 7 L 58.660254,22 62.753293,14.99508 66.339746,22 75,7 V 0 H 70 V 5 H 55 V 0 Z"
     fill="none"
     stroke="#000000"
     stroke-width="1"
     id="path4"
     sodipodi:nodetypes="cccccccccccc" />
  <circle
     cx="66.3397459621556"
     cy="14.5"
     r="0.5"
     fill="none"
     stroke="black"
     stroke-width="1"
     id="circle5" />
  <circle
     cx="58.66025403784439"
     cy="14.5"
     r="0.5"
     fill="none"
     stroke="black"
     stroke-width="1"
     id="circle6" />
  <path
     d="m 50,40 v 7 L 58.660254,62 62.400459,55.302583 66.339746,62 75,47 v -7 h -5 v 5 H 55 v -5 z"
     fill="none"
     stroke="#000000"
     stroke-width="1"
     id="path6"
     sodipodi:nodetypes="cccccccccccc" />
  <circle
     cx="66.3397459621556"
     cy="54.5"
     r="0.5"
     fill="none"
     stroke="black"
     stroke-width="1"
     id="circle7" />
  <circle
     cx="58.66025403784439"
     cy="54.5"
     r="0.5"
     fill="none"
     stroke="black"
     stroke-width="1"
     id="circle8" />
  <path
     d="m 100,0 v 7 l 8.66025,15 4.04771,-6.543665 L 116.33975,22 125,7 V 0 h -5 V 5 H 105 V 0 Z"
     fill="none"
     stroke="#000000"
     stroke-width="1"
     id="path8"
     sodipodi:nodetypes="cccccccccccc" />
  <circle
     cx="116.33974596215563"
     cy="14.5"
     r="0.5"
     fill="none"
     stroke="black"
     stroke-width="1"
     id="circle9" />
  <circle
     cx="108.6602540378444"
     cy="14.5"
     r="0.5"
     fill="none"
     stroke="black"
     stroke-width="1"
     id="circle10" />
  <path
     d="m 100,40 v 7 l 8.66025,15 3.74021,-6.851168 L 116.33975,62 125,47 v -7 h -5 v 5 h -15 v -5 z"
     fill="none"
     stroke="#000000"
     stroke-width="1"
     id="path10"
     sodipodi:nodetypes="cccccccccccc" />
  <circle
     cx="116.33974596215563"
     cy="54.5"
     r="0.5"
     fill="none"
     stroke="black"
     stroke-width="1"
     id="circle11" />
  <circle
     cx="108.6602540378444"
     cy="54.5"
     r="0.5"
     fill="none"
     stroke="black"
     stroke-width="1"
     id="circle12" />
  <path
     d="m 150,0 v 7 l 8.66025,15 3.93929,-7.158672 L 166.33975,22 175,7 V 0 h -5 V 5 H 155 V 0 Z"
     fill="none"
     stroke="#000000"
     stroke-width="1"
     id="path12"
     sodipodi:nodetypes="cccccccccccc" />
  <circle
     cx="166.33974596215563"
     cy="14.5"
     r="0.5"
     fill="none"
     stroke="black"
     stroke-width="1"
     id="circle13" />
  <circle
     cx="158.6602540378444"
     cy="14.5"
     r="0.5"
     fill="none"
     stroke="black"
     stroke-width="1"
     id="circle14" />
  <path
     d="m 150,40 v 7 l 8.66025,15 3.93929,-7.312423 L 166.33975,62 175,47 v -7 h -5 v 5 h -15 v -5 z"
     fill="none"
     stroke="#000000"
     stroke-width="1"
     id="path14"
     sodipodi:nodetypes="cccccccccccc" />
  <circle
     cx="166.33974596215563"
     cy="54.5"
     r="0.5"
     fill="none"
     stroke="black"
     stroke-width="1"
     id="circle15" />
  <circle
     cx="158.6602540378444"
     cy="54.5"
     r="0.5"
     fill="none"
     stroke="black"
     stroke-width="1"
     id="circle16" />
</svg>
